<?xml version="1.0" encoding="UTF-8"?><svg id="Layer_1" xmlns="http://www.w3.org/2000/svg" viewBox="0 0 400.5247 400.5247"><defs><style>.cls-1{fill:#0071bc;}</style></defs><path class="cls-1" d="M24.409,303.4972h199.4996V103.9976L24.409,303.4972ZM187.6359,267.2246h-75.6566l75.6566-75.6566v75.6566Z"/><path d="M356.959,194.1182v-59.8936c0-9.887-4.3734-16.5422-15.0212-16.5422-8.9364,0-17.3023,6.2751-21.2953,12.1688v64.267h-19.9646v-59.8936c0-9.887-4.373-16.5422-15.2109-16.5422-8.7464,0-16.9223,6.2751-21.1052,12.3592v64.0766h-19.9646v-91.8363h19.9646v12.5489c3.8025-5.704,15.9714-14.8308,29.8516-14.8308,13.6898,0,22.0558,6.8449,25.0982,16.9223,5.3239-8.3659,17.4927-16.9223,31.1826-16.9223,16.9223,0,26.4291,9.1268,26.4291,27.7598v66.3584h-19.9643Z"/><path d="M356.9008,303v-59.8936c0-9.887-4.3734-16.5422-15.0212-16.5422-8.9364,0-17.3023,6.2751-21.2953,12.1688v64.267h-19.9646v-59.8936c0-9.887-4.373-16.5422-15.2109-16.5422-8.7464,0-16.9223,6.2751-21.1052,12.3592v64.0766h-19.9646v-91.8363h19.9646v12.5489c3.8025-5.704,15.9714-14.8308,29.8516-14.8308,13.6898,0,22.0558,6.8449,25.0982,16.9223,5.3239-8.3659,17.4927-16.9223,31.1826-16.9223,16.9223,0,26.4291,9.1268,26.4291,27.7598v66.3584h-19.9643Z"/></svg>