<?xml version="1.0" encoding="UTF-8"?><svg id="Layer_1" xmlns="http://www.w3.org/2000/svg" viewBox="0 0 700 145"><defs><style>.cls-1{fill:#0071bc;}</style></defs><path d="M173.4898,79.3466v-26.0431c0-3.8422-1.7077-6.5746-6.1477-6.5746-3.8429,0-7.0022,2.5615-8.5389,4.7818v27.8358h-10.9295v-26.0431c0-3.8422-1.7077-6.5746-6.1477-6.5746-3.7571,0-6.9164,2.5615-8.5389,4.8669v27.7507h-10.8437v-41.2417h10.8437v5.379c1.7077-2.4757,7.1724-6.4037,13.491-6.4037,6.0626,0,9.9048,2.8175,11.4422,7.5142,2.3906-3.7571,7.8553-7.5142,14.1739-7.5142,7.5993,0,12.1251,4.0131,12.1251,12.4663v29.8002h-10.9295Z"/><path d="M213.7959,37.0801c12.2954,0,20.6634,9.2219,20.6634,22.7129v2.3906h-30.654c.6836,5.2087,4.8676,9.5637,11.8685,9.5637,3.8422,0,8.368-1.5368,11.0146-4.0989l4.7825,7.0022c-4.184,3.8422-10.5877,5.7208-16.9928,5.7208-12.5514,0-22.0293-8.4532-22.0293-21.6881,0-11.9542,8.795-21.603,21.347-21.603ZM203.6351,54.8403h20.3216c-.2567-3.9273-2.9884-9.1361-10.1608-9.1361-6.7455,0-9.6488,5.0378-10.1608,9.1361Z"/><path d="M267.079,79.3466v-4.2691c-2.8182,3.3302-7.6858,5.2939-13.0641,5.2939-6.5753,0-14.3462-4.44-14.3462-13.6619,0-9.6488,7.7709-13.1499,14.3462-13.1499,5.4648,0,10.331,1.7077,13.0641,5.0378v-5.7208c0-4.184-3.5869-6.9164-9.0516-6.9164-4.4394,0-8.5383,1.6225-12.0387,4.8669l-4.0989-7.2575c5.0378-4.44,11.5267-6.4895,18.0168-6.4895,9.3921,0,18.0168,3.7571,18.0168,15.6256v26.6409h-10.8444ZM267.079,64.3188c-1.7941-2.3912-5.2094-3.5869-8.7098-3.5869-4.2691,0-7.7709,2.3055-7.7709,6.2335,0,3.8422,3.5018,6.0626,7.7709,6.0626,3.5004,0,6.9157-1.1956,8.7098-3.5862v-5.123Z"/><path d="M289.7945,66.3676c2.9897,2.8182,9.1367,5.6357,14.2597,5.6357,4.6974,0,6.9171-1.6225,6.9171-4.184,0-2.9033-3.5869-3.928-8.2829-4.8669-7.0873-1.3665-16.2227-3.0742-16.2227-12.8932,0-6.9164,6.0619-12.979,16.9063-12.979,7.0009,0,12.5521,2.3906,16.5645,5.6357l-4.2691,7.4284c-2.4764-2.6473-7.1724-4.7818-12.2103-4.7818-3.9273,0-6.4888,1.4516-6.4888,3.8429,0,2.5615,3.2437,3.5004,7.8547,4.44,7.0873,1.3659,16.5658,3.2444,16.5658,13.491,0,7.5993-6.405,13.235-17.8466,13.235-7.1724,0-14.0881-2.3912-18.4437-6.4044l4.696-7.5993Z"/><path d="M357.2522,79.3466v-5.2087c-2.8182,3.1593-7.7696,6.2335-14.5164,6.2335-9.0503,0-13.3194-4.9527-13.3194-12.979v-29.2875h10.8444v25.0183c0,5.7208,2.9884,7.5993,7.5993,7.5993,4.184,0,7.5142-2.3055,9.3921-4.696v-27.9216h10.8444v41.2417h-10.8444Z"/><path d="M378.8572,79.3466v-41.2417h10.8444v5.6357c2.9033-3.672,8.0262-6.5753,13.1492-6.5753v10.5884c-.7687-.1709-1.7928-.2567-2.9884-.2567-3.5869,0-8.368,1.9643-10.1608,4.6109v27.2387h-10.8444Z"/><path d="M428.2968,37.0801c12.2967,0,20.6634,9.2219,20.6634,22.7129v2.3906h-30.6527c.6823,5.2087,4.8663,9.5637,11.8685,9.5637,3.8422,0,8.368-1.5368,11.0146-4.0989l4.7812,7.0022c-4.184,3.8422-10.5877,5.7208-16.9914,5.7208-12.5521,0-22.0306-8.4532-22.0306-21.6881,0-11.9542,8.795-21.603,21.347-21.603ZM418.1359,54.8403h20.3216c-.2554-3.9273-2.9884-9.1361-10.1608-9.1361-6.7455,0-9.6488,5.0378-10.1608,9.1361Z"/><path d="M485.1654,79.3466v-5.2087c-3.2437,4.0131-7.7696,6.2335-12.7223,6.2335-10.4175,0-18.2722-7.856-18.2722-21.603,0-13.491,7.7696-21.6881,18.2722-21.6881,4.8676,0,9.4785,2.1346,12.7223,6.3186v-21.0052h10.9295v56.9531h-10.9295ZM485.1654,51.425c-1.8779-2.7324-5.7201-4.696-9.3921-4.696-6.1484,0-10.4175,4.8669-10.4175,12.0394,0,7.0873,4.2691,11.9542,10.4175,11.9542,3.672,0,7.5142-1.9637,9.3921-4.696v-14.6015Z"/><path d="M579.8631,79.3466v-26.0431c0-3.8422-1.7077-6.5746-6.147-6.5746-3.8422,0-7.0022,2.5615-8.5383,4.7818v27.8358h-10.9295v-26.0431c0-3.8422-1.709-6.5746-6.1484-6.5746-3.7571,0-6.9171,2.5615-8.5383,4.8669v27.7507h-10.8444v-41.2417h10.8444v5.379c1.7077-2.4757,7.1724-6.4037,13.491-6.4037,6.0619,0,9.9041,2.8175,11.4416,7.5142,2.3912-3.7571,7.856-7.5142,14.1746-7.5142,7.5993,0,12.1238,4.0131,12.1238,12.4663v29.8002h-10.9295Z"/><path d="M626.2331,79.3466v-4.2691c-2.8182,3.3302-7.6858,5.2939-13.0641,5.2939-6.5753,0-14.3448-4.44-14.3448-13.6619,0-9.6488,7.7696-13.1499,14.3448-13.1499,5.4648,0,10.331,1.7077,13.0641,5.0378v-5.7208c0-4.184-3.5869-6.9164-9.0516-6.9164-4.4394,0-8.5383,1.6225-12.0387,4.8669l-4.0989-7.2575c5.0378-4.44,11.5267-6.4895,18.0168-6.4895,9.3921,0,18.0155,3.7571,18.0155,15.6256v26.6409h-10.8431ZM626.2331,64.3188c-1.7941-2.3912-5.2094-3.5869-8.7098-3.5869-4.2691,0-7.7696,2.3055-7.7696,6.2335,0,3.8422,3.5004,6.0626,7.7696,6.0626,3.5004,0,6.9157-1.1956,8.7098-3.5862v-5.123Z"/><path d="M646.7276,25.5528c0-3.5862,2.9884-6.4895,6.4902-6.4895,3.5855,0,6.4888,2.9033,6.4888,6.4895s-2.9033,6.4895-6.4888,6.4895c-3.5018,0-6.4902-2.9033-6.4902-6.4895ZM647.8381,79.3466v-41.2417h10.8444v41.2417h-10.8444Z"/><path d="M669.4418,79.3466V22.3935h10.8444v56.9531h-10.8444Z"/><path d="M141.0577,125.281l-1.705-4.4527h-10.992l-1.705,4.4527h-4.4527l9.1141-23.2023h5.0791l9.1141,23.2023h-4.4527ZM133.8567,105.522l-4.3483,11.7235h8.6965l-4.3483-11.7235Z"/><path d="M164.2287,125.281l-12.1059-16.9063v16.9063h-4.0703v-23.2023h4.1747l11.8618,16.4541v-16.4541h4.0703v23.2023h-3.9307Z"/><path d="M182.0434,125.281v-23.2023h15.8975v3.5829h-11.8272v6.018h11.5839v3.5829h-11.5839v6.4356h11.8272v3.5829h-15.8975Z"/><path d="M222.156,125.281v-17.5673l-7.1312,17.5673h-1.7396l-7.0966-17.5673v17.5673h-4.0703v-23.2023h5.7394l6.2973,15.6189,6.3306-15.6189h5.7401v23.2023h-4.0696Z"/><path d="M247.5886,125.281l-1.705-4.4527h-10.992l-1.705,4.4527h-4.4527l9.1141-23.2023h5.0791l9.1141,23.2023h-4.4527ZM240.3869,105.522l-4.3476,11.7235h8.6965l-4.3489-11.7235Z"/><path d="M254.5828,125.281v-23.2023h4.0696v23.2023h-4.0696Z"/><path d="M263.5945,125.281v-23.2023h4.0696v19.6194h10.2273v3.5829h-14.297Z"/><path d="M289.478,113.6972c0-7.1312,5.3225-12.0015,12.0015-12.0015,4.8703,0,7.7576,2.4351,9.4972,5.2174l-3.4791,1.7742c-1.1132-1.9125-3.3395-3.3741-6.018-3.3741-4.4181,0-7.8267,3.5137-7.8267,8.384s3.4087,8.384,7.8267,8.384c2.6785,0,4.9049-1.427,6.018-3.3754l3.4791,1.7742c-1.7742,2.7836-4.6269,5.2187-9.4972,5.2187-6.679,0-12.0015-4.8703-12.0015-12.0015Z"/><path d="M325.0688,101.6957c6.957,0,11.8618,5.0791,11.8618,12.0015s-4.9049,12.0015-11.8618,12.0015-11.8631-5.0791-11.8631-12.0015,4.9049-12.0015,11.8631-12.0015ZM325.0688,105.3132c-4.696,0-7.6884,3.5829-7.6884,8.384,0,4.7652,2.9924,8.384,7.6884,8.384,4.6615,0,7.6871-3.6188,7.6871-8.384,0-4.8011-3.0256-8.384-7.6871-8.384Z"/><path d="M357.0421,125.281l-12.1065-16.9063v16.9063h-4.0696v-23.2023h4.1747l11.8618,16.4541v-16.4541h4.0696v23.2023h-3.93Z"/><path d="M366.6815,118.88c1.5999,1.705,4.1042,3.2012,7.3387,3.2012,3.3408,0,4.6615-1.6358,4.6615-3.1666,0-2.0867-2.4697-2.7131-5.2865-3.4432-3.7917-.9389-8.2444-2.0521-8.2444-6.957,0-3.8276,3.3741-6.7841,8.4532-6.7841,3.6175,0,6.5394,1.1477,8.6965,3.2358l-2.3314,3.0256c-1.8087-1.8087-4.2784-2.6439-6.7136-2.6439-2.4006,0-3.9313,1.1491-3.9313,2.8873,0,1.8101,2.366,2.4006,5.1137,3.0961,3.8276.9749,8.384,2.1572,8.384,7.2017,0,3.8608-2.7131,7.1658-8.9745,7.1658-4.2798,0-7.3746-1.4962-9.428-3.6879l2.2622-3.1307Z"/><path d="M386.5816,102.0787h4.1056v13.9139c0,3.6879,2.0521,6.0885,5.9475,6.0885,3.8622,0,5.9143-2.4006,5.9143-6.0885v-13.9139h4.1042v14.019c0,5.7746-3.3049,9.6009-10.0185,9.6009-6.7482,0-10.0531-3.8608-10.0531-9.5663v-14.0536Z"/><path d="M411.5966,125.281v-23.2023h4.0696v19.6194h10.2273v3.5829h-14.297Z"/><path d="M431.6363,125.281v-19.6194h-7.0275v-3.5829h18.1245v3.5829h-7.0275v19.6194h-4.0696Z"/><path d="M446.1792,125.281v-23.2023h4.0696v23.2023h-4.0696Z"/><path d="M471.3658,125.281l-12.1065-16.9063v16.9063h-4.0696v-23.2023h4.1747l11.8618,16.4541v-16.4541h4.0696v23.2023h-3.93Z"/><path d="M491.3709,101.6957c4.5218,0,7.4796,2.1572,9.3575,4.8357l-3.3395,1.8779c-1.2169-1.7396-3.4087-3.0961-6.018-3.0961-4.5923,0-8.001,3.5137-8.001,8.384s3.4087,8.4186,8.001,8.4186c2.366,0,4.4527-1.1132,5.4967-2.088v-3.6175h-6.9224v-3.5829h10.992v8.6965c-2.2955,2.5402-5.5313,4.2093-9.5663,4.2093-6.7136,0-12.1757-4.7652-12.1757-12.036s5.4621-12.0015,12.1757-12.0015Z"/><path d="M513.0823,113.6972c0-7.1312,5.3225-12.0015,12.0015-12.0015,4.8703,0,7.7576,2.4351,9.4972,5.2174l-3.4791,1.7742c-1.1132-1.9125-3.3395-3.3741-6.018-3.3741-4.4181,0-7.8267,3.5137-7.8267,8.384s3.4087,8.384,7.8267,8.384c2.6785,0,4.9049-1.427,6.018-3.3754l3.4791,1.7742c-1.7742,2.7836-4.6269,5.2187-9.4972,5.2187-6.679,0-12.0015-4.8703-12.0015-12.0015Z"/><path d="M548.6731,101.6957c6.957,0,11.8618,5.0791,11.8618,12.0015s-4.9049,12.0015-11.8618,12.0015-11.8631-5.0791-11.8631-12.0015,4.9049-12.0015,11.8631-12.0015ZM548.6731,105.3132c-4.696,0-7.6884,3.5829-7.6884,8.384,0,4.7652,2.9924,8.384,7.6884,8.384,4.6615,0,7.6871-3.6188,7.6871-8.384,0-4.8011-3.0256-8.384-7.6871-8.384Z"/><path d="M584.5072,125.281v-17.5673l-7.1312,17.5673h-1.7396l-7.0966-17.5673v17.5673h-4.0696v-23.2023h5.7401l6.296,15.6189,6.3319-15.6189h5.7387v23.2023h-4.0696Z"/><path d="M593.5203,125.281v-23.2023h10.1927c4.8703,0,7.5834,3.3395,7.5834,7.2695s-2.7477,7.2708-7.5834,7.2708h-6.1231v8.662h-4.0696ZM603.1558,105.6616h-5.5658v7.3746h5.5658c2.2968,0,3.9659-1.4616,3.9659-3.6879s-1.6691-3.6866-3.9659-3.6866Z"/><path d="M628.4833,125.281l-1.705-4.4527h-10.992l-1.705,4.4527h-4.4527l9.1141-23.2023h5.0791l9.1141,23.2023h-4.4527ZM621.2817,105.522l-4.3476,11.7235h8.6965l-4.3489-11.7235Z"/><path d="M651.655,125.281l-12.1065-16.9063v16.9063h-4.0696v-23.2023h4.1747l11.8618,16.4541v-16.4541h4.0696v23.2023h-3.93Z"/><path d="M667.1037,125.281v-9.6355l-9.0104-13.5668h4.6615l6.401,9.948,6.3306-9.948h4.6615l-8.9745,13.5668v9.6355h-4.0696Z"/><path class="cls-1" d="M19.7138,125.9367h89.8833V36.0534L19.7138,125.9367ZM93.2547,109.5943h-34.0866l34.0866-34.0866v34.0866Z"/></svg>