<?xml version="1.0" encoding="UTF-8"?><svg id="Layer_1" xmlns="http://www.w3.org/2000/svg" viewBox="0 0 400 400"><defs><style>.cls-1{fill:#0071bc;}</style></defs><path class="cls-1" d="M26.5,272.7522h142.646v-142.646L26.5,272.7522ZM143.2103,246.8165h-54.0959l54.0959-54.0959v54.0959Z"/><path d="M342.7722,272.1086v-92.1844c0-15.2174-6.7312-25.4607-23.1196-25.4607-13.7543,0-26.6307,9.6583-32.7763,18.7295v98.9156h-30.7283v-92.1844c0-15.2174-6.7307-25.4607-23.4116-25.4607-13.4618,0-26.0457,9.6583-32.4838,19.0225v98.6226h-30.7283v-141.3486h30.7283v19.3145c5.8526-8.7792,24.5821-22.8266,45.9457-22.8266,21.0705,0,33.9469,10.5353,38.6295,26.0457,8.1942-12.8763,26.9237-26.0457,47.9942-26.0457,26.0457,0,40.678,14.0474,40.678,42.7261v102.1347h-30.7278Z"/></svg>